<svg width="400" height="120" viewBox="0 0 400 120" fill="none" xmlns="http://www.w3.org/2000/svg">
<path d="M92.6369 53.1576C94.3103 54.0655 95.6365 55.3473 96.6156 57.0028C97.6125 58.6584 98.111 60.4386 98.111 62.3434V64.6666C98.111 67.5861 97.0874 70.0694 95.0401 72.1167C92.9929 74.1639 90.5095 75.1875 87.59 75.1875H63.2904V65.3608H87.59C87.768 65.3608 87.9283 65.2896 88.0707 65.1472C88.2131 65.0048 88.2843 64.8446 88.2843 64.6666V62.3434C88.2843 62.1476 88.2131 61.9874 88.0707 61.8628C87.9283 61.7203 87.768 61.6491 87.59 61.6491H63.2904V51.8225H63.4506V51.7691H82.3296C82.5254 51.7691 82.6856 51.7068 82.8102 51.5822C82.9348 51.4397 82.9971 51.2795 82.9971 51.1015V48.7516C82.9971 48.5736 82.9348 48.4223 82.8102 48.2977C82.6856 48.1553 82.5254 48.0841 82.3296 48.0841H33.8371V38.2307H82.3296C85.2313 38.2307 87.7057 39.2543 89.753 41.3015C91.818 43.3488 92.8505 45.8321 92.8505 48.7516V51.1015C92.8505 51.7602 92.7793 52.4455 92.6369 53.1576ZM135.014 75.1608H101.128V65.3341H135.014V75.1608ZM135.014 61.6224H101.128V51.7691H135.014V61.6224ZM101.128 38.2841L167.619 38.2307V48.0841H153.226V75.1875H143.372V48.1375H101.128V38.2841Z" fill="#2C53FF"/>
<path d="M200.303 24.6924H210.13V75.1875H196.084L180.463 52.5168V95.1346H170.609V38.2307H181.905L200.303 64.7734V24.6924ZM246.953 48.0841H213.067V38.2307H246.953V48.0841ZM246.953 75.1608H213.067V65.3341H246.953V75.1608ZM246.953 61.6224H213.067V51.7691H246.953V61.6224ZM288.422 38.2307L275.658 56.7625L288.422 75.1875H275.338L269.143 66.1886L262.948 75.1875H249.863L262.627 56.7625L249.863 38.2307H262.814L269.143 47.3631L275.471 38.2307H288.422ZM318.356 38.2307H328.183V64.6666C328.183 67.5861 327.159 70.0694 325.112 72.1167C323.065 74.1639 320.582 75.1875 317.662 75.1875H301.827C298.926 75.1875 296.442 74.1639 294.377 72.1167C292.33 70.0516 291.306 67.5683 291.306 64.6666V38.2307H301.16V64.6666C301.16 64.8446 301.222 65.0048 301.347 65.1472C301.471 65.2718 301.631 65.3341 301.827 65.3341H317.662C317.858 65.3341 318.018 65.2718 318.143 65.1472C318.285 65.0048 318.356 64.8446 318.356 64.6666V38.2307ZM357.129 51.7958C360.048 51.7958 362.532 52.8194 364.579 54.8666C366.626 56.9138 367.65 59.3972 367.65 62.3167V64.6666C367.65 67.5861 366.626 70.0694 364.579 72.1167C362.532 74.1639 360.048 75.1875 357.129 75.1875H332.803V65.3341H357.129C357.307 65.3341 357.458 65.2718 357.583 65.1472C357.725 65.0048 357.796 64.8446 357.796 64.6666V62.3167C357.796 62.1387 357.725 61.9874 357.583 61.8628C357.458 61.7203 357.307 61.6491 357.129 61.6491L341.615 61.6224C338.731 61.6224 336.256 60.5899 334.191 58.5249C332.126 56.4599 331.094 53.9854 331.094 51.1015V48.7516C331.094 45.8677 332.126 43.3933 334.191 41.3282C336.256 39.2632 338.731 38.2307 341.615 38.2307H365.941V48.0841H341.615C341.419 48.0841 341.258 48.1553 341.134 48.2977C341.009 48.4223 340.947 48.5736 340.947 48.7516V51.1015C340.947 51.2795 341.009 51.4397 341.134 51.5822C341.258 51.7068 341.419 51.7691 341.615 51.7691L357.129 51.7958Z" fill="#222222"/>
</svg>
